<svg width="85" height="85" viewBox="0 0 85 85" fill="none" xmlns="http://www.w3.org/2000/svg">
<g filter="url(#filter0_i_1_165)">
<rect width="85" height="85" rx="17.6347" fill="#170126"/>
<rect x="1.10217" y="1.10217" width="82.7957" height="82.7957" rx="16.5325" stroke="#7303C0" stroke-opacity="0.3" stroke-width="2.20434"/>
<path fill-rule="evenodd" clip-rule="evenodd" d="M42.5 16.0479C56.5004 16.0479 67.8499 27.8908 67.8499 42.4999C67.8499 57.109 56.5004 68.952 42.5 68.952C28.4997 68.952 17.1501 57.109 17.1501 42.4999C17.1501 27.8908 28.4997 16.0479 42.5 16.0479ZM41.5838 18.0272C38.6919 18.4519 35.9381 20.8768 33.8005 24.9323C33.1804 26.1087 32.6209 27.4083 32.1333 28.8116C35.0399 28.0494 38.2329 27.6 41.5838 27.5305V18.0272ZM29.9909 29.4469C30.5971 27.4614 31.3389 25.6346 32.1948 24.0108C33.2544 22.0003 34.512 20.2642 35.929 18.9308C28.224 21.2658 22.1507 27.6032 19.913 35.6431C21.1909 34.1646 22.8546 32.8523 24.7813 31.7466C26.3375 30.8535 28.0881 30.0795 29.9909 29.4469ZM29.382 31.6825C28.6516 34.7155 28.221 38.0472 28.1544 41.5438H19.0471C19.4541 38.526 21.7779 35.6525 25.6644 33.4221C26.7918 32.7751 28.0373 32.1913 29.382 31.6825ZM29.9873 41.5438C30.063 37.728 30.5894 34.1456 31.4604 30.9803C34.4938 30.0714 37.927 29.522 41.5838 29.443V33.5734C40.2196 37.2177 37.4372 40.1208 33.9446 41.5438H29.9873ZM28.1544 43.456H19.0471C19.4541 46.4738 21.7779 49.3472 25.6644 51.5777C26.7918 52.2248 28.0373 52.8086 29.382 53.3174C28.6516 50.2844 28.221 46.9526 28.1544 43.456ZM31.4604 54.0195C30.5894 50.8543 30.063 47.2719 29.9873 43.456H33.9446C37.4372 44.879 40.2197 47.7821 41.5838 51.4264V55.5568C37.927 55.4778 34.4938 54.9284 31.4604 54.0195ZM29.9909 55.553C28.0881 54.9204 26.3375 54.1464 24.7813 53.2532C22.8546 52.1475 21.1909 50.8352 19.913 49.3567C22.1507 57.3967 28.224 63.7341 35.929 66.069C34.512 64.7355 33.2544 62.9995 32.1948 60.989C31.3389 59.3652 30.5971 57.5385 29.9909 55.553ZM41.5838 66.9726C38.6919 66.5479 35.9381 64.123 33.8005 60.0675C33.1804 58.8912 32.6209 57.5915 32.1333 56.1883C35.0399 56.9504 38.2329 57.3998 41.5838 57.4693V66.9726ZM49.0711 66.069C50.4881 64.7355 51.7457 62.9995 52.8054 60.989C53.6612 59.3652 54.403 57.5385 55.0092 55.553C56.912 54.9204 58.6626 54.1464 60.2189 53.2532C62.1455 52.1475 63.8093 50.8352 65.0871 49.3567C62.8494 57.3967 56.7761 63.7341 49.0711 66.069ZM52.8668 56.1883C52.3792 57.5915 51.8197 58.8912 51.1996 60.0675C49.0621 64.123 46.3084 66.5479 43.4163 66.9726V57.4693C46.7672 57.3998 49.9601 56.9504 52.8668 56.1883ZM55.6181 53.3174C56.9628 52.8086 58.2084 52.2248 59.3357 51.5777C63.2222 49.3472 65.546 46.4738 65.953 43.456H56.8457C56.7791 46.9526 56.3484 50.2844 55.6181 53.3174ZM55.0129 43.456C54.9372 47.2719 54.4107 50.8543 53.5397 54.0195C50.5063 54.9284 47.0732 55.4778 43.4163 55.5568V51.4295C44.78 47.7839 47.5631 44.8794 51.0567 43.456H55.0129ZM56.8457 41.5438H65.953C65.546 38.526 63.2222 35.6525 59.3357 33.4221C58.2084 32.7751 56.9628 32.1913 55.6181 31.6825C56.3484 34.7155 56.7791 38.0472 56.8457 41.5438ZM53.5397 30.9803C54.4107 34.1456 54.9372 37.728 55.0129 41.5438H51.0567C47.5631 40.1204 44.78 37.216 43.4163 33.5704V29.443C47.0732 29.522 50.5063 30.0714 53.5397 30.9803ZM55.0092 29.4469C56.912 30.0795 58.6626 30.8535 60.2189 31.7466C62.1455 32.8523 63.8093 34.1646 65.0871 35.6431C62.8494 27.6032 56.7761 21.2658 49.0711 18.9308C50.4881 20.2642 51.7457 22.0003 52.8054 24.0108C53.6612 25.6346 54.403 27.4614 55.0092 29.4469ZM43.4163 18.0272C46.3084 18.4519 49.0621 20.8768 51.1996 24.9323C51.8197 26.1087 52.3792 27.4083 52.8668 28.8116C49.9601 28.0494 46.7672 27.6 43.4163 27.5305V18.0272Z" fill="white"/>
</g>
<defs>
<filter id="filter0_i_1_165" x="0" y="0" width="85" height="89.4087" filterUnits="userSpaceOnUse" color-interpolation-filters="sRGB">
<feFlood flood-opacity="0" result="BackgroundImageFix"/>
<feBlend mode="normal" in="SourceGraphic" in2="BackgroundImageFix" result="shape"/>
<feColorMatrix in="SourceAlpha" type="matrix" values="0 0 0 0 0 0 0 0 0 0 0 0 0 0 0 0 0 0 127 0" result="hardAlpha"/>
<feOffset dy="4.40868"/>
<feGaussianBlur stdDeviation="5.51085"/>
<feComposite in2="hardAlpha" operator="arithmetic" k2="-1" k3="1"/>
<feColorMatrix type="matrix" values="0 0 0 0 0.992157 0 0 0 0 0.937255 0 0 0 0 0.976471 0 0 0 0.2 0"/>
<feBlend mode="normal" in2="shape" result="effect1_innerShadow_1_165"/>
</filter>
</defs>
</svg>
