<svg width="94" height="24" viewBox="0 0 94 24" fill="none" xmlns="http://www.w3.org/2000/svg">
<path fill-rule="evenodd" clip-rule="evenodd" d="M11.5 0C17.8513 0 23 5.37258 23 12C23 18.6274 17.8513 24 11.5 24C5.14873 24 0 18.6274 0 12C0 5.37258 5.14873 0 11.5 0ZM11.0843 0.897954C9.77241 1.09061 8.52317 2.19065 7.55343 4.03044C7.27214 4.5641 7.01833 5.15368 6.79713 5.79026C8.11572 5.4445 9.5642 5.24065 11.0843 5.20912V0.897954ZM5.82521 6.07848C6.10023 5.17775 6.43672 4.34904 6.82502 3.61239C7.30572 2.70035 7.87623 1.91277 8.51903 1.30786C5.02366 2.36714 2.2685 5.24207 1.25337 8.88942C1.83307 8.21868 2.58784 7.62336 3.46188 7.12176C4.16783 6.71658 4.96201 6.36546 5.82521 6.07848ZM5.54898 7.09266C5.21764 8.46858 5.02229 9.98004 4.99208 11.5663H0.860536C1.04517 10.1972 2.09937 8.89368 3.86251 7.88184C4.37393 7.58832 4.93894 7.32348 5.54898 7.09266ZM5.8236 11.5663C5.85792 9.8352 6.09672 8.21004 6.49186 6.77412C7.86795 6.3618 9.42546 6.11256 11.0843 6.07674V7.95048C10.4655 9.60372 9.20322 10.9207 7.61881 11.5663H5.8236ZM4.99208 12.4337H0.860536C1.04517 13.8028 2.09937 15.1063 3.86251 16.1182C4.37393 16.4117 4.93894 16.6765 5.54898 16.9073C5.21764 15.5314 5.02229 14.02 4.99208 12.4337ZM6.49186 17.2259C6.09672 15.79 5.85792 14.1648 5.8236 12.4337H7.61881C9.20322 13.0793 10.4655 14.3963 11.0843 16.0495V17.9233C9.42546 17.8874 7.86795 17.6382 6.49186 17.2259ZM5.82521 17.9215C4.96201 17.6345 4.16783 17.2834 3.46188 16.8782C2.58784 16.3766 1.83307 15.7813 1.25337 15.1106C2.2685 18.7579 5.02366 21.6329 8.51903 22.6921C7.87623 22.0872 7.30572 21.2996 6.82502 20.3876C6.43672 19.651 6.10023 18.8222 5.82521 17.9215ZM11.0843 23.102C9.77241 22.9094 8.52317 21.8093 7.55343 19.9696C7.27214 19.4359 7.01833 18.8463 6.79713 18.2098C8.11572 18.5555 9.5642 18.7594 11.0843 18.7909V23.102ZM14.481 22.6921C15.1238 22.0872 15.6943 21.2996 16.175 20.3876C16.5633 19.651 16.8998 18.8222 17.1748 17.9215C18.038 17.6345 18.8322 17.2834 19.5382 16.8782C20.4122 16.3766 21.167 15.7813 21.7466 15.1106C20.7315 18.7579 17.9763 21.6329 14.481 22.6921ZM16.2029 18.2098C15.9817 18.8463 15.7279 19.4359 15.4466 19.9696C14.4769 21.8093 13.2276 22.9094 11.9157 23.102V18.7909C13.4358 18.7594 14.8843 18.5555 16.2029 18.2098ZM17.451 16.9073C18.061 16.6765 18.6261 16.4117 19.1375 16.1182C20.9006 15.1063 21.9548 13.8028 22.1395 12.4337H18.0079C17.9777 14.02 17.7823 15.5314 17.451 16.9073ZM17.1765 12.4337C17.1421 14.1648 16.9033 15.79 16.5081 17.2259C15.132 17.6382 13.5746 17.8874 11.9157 17.9233V16.0509C12.5343 14.3971 13.7968 13.0795 15.3817 12.4337H17.1765ZM18.0079 11.5663H22.1395C21.9548 10.1972 20.9006 8.89368 19.1375 7.88184C18.6261 7.58832 18.061 7.32348 17.451 7.09266C17.7823 8.46858 17.9777 9.98004 18.0079 11.5663ZM16.5081 6.77412C16.9033 8.21004 17.1421 9.8352 17.1765 11.5663H15.3817C13.7968 10.9205 12.5343 9.60294 11.9157 7.9491V6.07674C13.5746 6.11256 15.132 6.3618 16.5081 6.77412ZM17.1748 6.07848C18.038 6.36546 18.8322 6.71658 19.5382 7.12176C20.4122 7.62336 21.167 8.21868 21.7466 8.88942C20.7315 5.24207 17.9763 2.36714 14.481 1.30786C15.1238 1.91277 15.6943 2.70035 16.175 3.61239C16.5633 4.34904 16.8998 5.17775 17.1748 6.07848ZM11.9157 0.897954C13.2276 1.09061 14.4769 2.19065 15.4466 4.03044C15.7279 4.5641 15.9817 5.15368 16.2029 5.79026C14.8843 5.4445 13.4358 5.24065 11.9157 5.20912V0.897954Z" fill="white"/>
<path d="M87.2327 8.028H89.1527V10.644H89.2007C89.6967 9.636 90.3047 8.892 91.0247 8.412C91.7447 7.932 92.6567 7.708 93.7607 7.74V9.9C92.9447 9.9 92.2487 10.012 91.6727 10.236C91.0967 10.46 90.6327 10.788 90.2807 11.22C89.9287 11.652 89.6727 12.18 89.5127 12.804C89.3527 13.412 89.2727 14.116 89.2727 14.916V20.436H87.2327V8.028Z" fill="white"/>
<path d="M75.0114 14.244C75.0114 14.996 75.1074 15.668 75.2994 16.26C75.5074 16.836 75.7874 17.324 76.1394 17.724C76.4914 18.108 76.8994 18.404 77.3634 18.612C77.8434 18.82 78.3474 18.924 78.8754 18.924C79.4034 18.924 79.8994 18.82 80.3634 18.612C80.8434 18.404 81.2594 18.108 81.6114 17.724C81.9634 17.324 82.2354 16.836 82.4274 16.26C82.6354 15.668 82.7394 14.996 82.7394 14.244C82.7394 13.492 82.6354 12.828 82.4274 12.252C82.2354 11.66 81.9634 11.164 81.6114 10.764C81.2594 10.364 80.8434 10.06 80.3634 9.85201C79.8994 9.64401 79.4034 9.54001 78.8754 9.54001C78.3474 9.54001 77.8434 9.64401 77.3634 9.85201C76.8994 10.06 76.4914 10.364 76.1394 10.764C75.7874 11.164 75.5074 11.66 75.2994 12.252C75.1074 12.828 75.0114 13.492 75.0114 14.244ZM72.8514 14.244C72.8514 13.332 72.9794 12.484 73.2354 11.7C73.4914 10.9 73.8754 10.212 74.3874 9.63601C74.8994 9.04401 75.5314 8.58001 76.2834 8.24401C77.0354 7.90801 77.8994 7.74001 78.8754 7.74001C79.8674 7.74001 80.7314 7.90801 81.4674 8.24401C82.2194 8.58001 82.8514 9.04401 83.3634 9.63601C83.8754 10.212 84.2594 10.9 84.5154 11.7C84.7714 12.484 84.8994 13.332 84.8994 14.244C84.8994 15.156 84.7714 16.004 84.5154 16.788C84.2594 17.572 83.8754 18.26 83.3634 18.852C82.8514 19.428 82.2194 19.884 81.4674 20.22C80.7314 20.54 79.8674 20.7 78.8754 20.7C77.8994 20.7 77.0354 20.54 76.2834 20.22C75.5314 19.884 74.8994 19.428 74.3874 18.852C73.8754 18.26 73.4914 17.572 73.2354 16.788C72.9794 16.004 72.8514 15.156 72.8514 14.244Z" fill="white"/>
<path d="M64.4375 13.908L60.1175 8.028H62.7335L65.7095 12.372L68.8055 8.028H71.2535L66.9815 13.74L71.7815 20.436H69.1655L65.7095 15.3L62.2535 20.436H59.7815L64.4375 13.908Z" fill="white"/>
<path d="M58.0376 20.436H56.1176V18.468H56.0696C55.6376 19.236 55.0856 19.804 54.4136 20.172C53.7416 20.524 52.9496 20.7 52.0376 20.7C51.2216 20.7 50.5416 20.596 49.9976 20.388C49.4536 20.164 49.0136 19.852 48.6776 19.452C48.3416 19.052 48.1016 18.58 47.9576 18.036C47.8296 17.476 47.7656 16.86 47.7656 16.188V8.028H49.8056V16.428C49.8056 17.196 50.0296 17.804 50.4776 18.252C50.9256 18.7 51.5416 18.924 52.3256 18.924C52.9496 18.924 53.4856 18.828 53.9336 18.636C54.3976 18.444 54.7816 18.172 55.0856 17.82C55.3896 17.468 55.6136 17.06 55.7576 16.596C55.9176 16.116 55.9976 15.596 55.9976 15.036V8.028H58.0376V20.436Z" fill="white"/>
<path d="M42.5653 3.3H44.6053V20.436H42.5653V3.3Z" fill="white"/>
<path d="M29 3.3H40.256V5.22H31.28V10.668H39.152V12.588H31.28V20.436H29V3.3Z" fill="white"/>
</svg>
